<mxfile host="app.diagrams.net" modified="2024-03-13T20:07:53.271Z" agent="Mozilla/5.0 (Windows NT 10.0; Win64; x64) AppleWebKit/537.36 (KHTML, like Gecko) Chrome/122.0.0.0 Safari/537.36" version="24.0.6" etag="1Kj98nXX8BSE_UGf3tIm" type="device">
  <diagram id="PyUoBw6KBLyewXkc5gP3" name="Página-1">
    <mxGraphModel dx="1120" dy="3079" grid="1" gridSize="10" guides="1" tooltips="1" connect="1" arrows="1" fold="1" page="1" pageScale="1" pageWidth="1100" pageHeight="850" math="0" shadow="0">
      <root>
        <mxCell id="0" />
        <mxCell id="1" parent="0" />
        <mxCell id="aPGMS26r7XjSDQd_CqV--22" style="edgeStyle=orthogonalEdgeStyle;rounded=0;orthogonalLoop=1;jettySize=auto;html=1;entryX=0.5;entryY=0;entryDx=0;entryDy=0;" edge="1" parent="1" source="aPGMS26r7XjSDQd_CqV--1" target="aPGMS26r7XjSDQd_CqV--4">
          <mxGeometry relative="1" as="geometry" />
        </mxCell>
        <mxCell id="aPGMS26r7XjSDQd_CqV--24" style="edgeStyle=orthogonalEdgeStyle;rounded=0;orthogonalLoop=1;jettySize=auto;html=1;" edge="1" parent="1" source="aPGMS26r7XjSDQd_CqV--1" target="aPGMS26r7XjSDQd_CqV--2">
          <mxGeometry relative="1" as="geometry" />
        </mxCell>
        <mxCell id="aPGMS26r7XjSDQd_CqV--25" style="edgeStyle=orthogonalEdgeStyle;rounded=0;orthogonalLoop=1;jettySize=auto;html=1;entryX=0.5;entryY=0;entryDx=0;entryDy=0;" edge="1" parent="1" source="aPGMS26r7XjSDQd_CqV--1" target="aPGMS26r7XjSDQd_CqV--3">
          <mxGeometry relative="1" as="geometry" />
        </mxCell>
        <mxCell id="aPGMS26r7XjSDQd_CqV--1" value="sistema de agendamento médico" style="rounded=0;whiteSpace=wrap;html=1;" vertex="1" parent="1">
          <mxGeometry x="440" y="-2520" width="120" height="60" as="geometry" />
        </mxCell>
        <mxCell id="aPGMS26r7XjSDQd_CqV--14" style="edgeStyle=orthogonalEdgeStyle;rounded=0;orthogonalLoop=1;jettySize=auto;html=1;entryX=0.5;entryY=0;entryDx=0;entryDy=0;" edge="1" parent="1" source="aPGMS26r7XjSDQd_CqV--2" target="aPGMS26r7XjSDQd_CqV--7">
          <mxGeometry relative="1" as="geometry" />
        </mxCell>
        <mxCell id="aPGMS26r7XjSDQd_CqV--2" value="processo" style="rounded=0;whiteSpace=wrap;html=1;" vertex="1" parent="1">
          <mxGeometry x="440" y="-2430" width="120" height="60" as="geometry" />
        </mxCell>
        <mxCell id="aPGMS26r7XjSDQd_CqV--20" style="edgeStyle=orthogonalEdgeStyle;rounded=0;orthogonalLoop=1;jettySize=auto;html=1;" edge="1" parent="1" source="aPGMS26r7XjSDQd_CqV--3" target="aPGMS26r7XjSDQd_CqV--9">
          <mxGeometry relative="1" as="geometry" />
        </mxCell>
        <mxCell id="aPGMS26r7XjSDQd_CqV--3" value="relatórios e consultas" style="rounded=0;whiteSpace=wrap;html=1;" vertex="1" parent="1">
          <mxGeometry x="600" y="-2430" width="120" height="60" as="geometry" />
        </mxCell>
        <mxCell id="aPGMS26r7XjSDQd_CqV--4" value="cadastro" style="rounded=0;whiteSpace=wrap;html=1;" vertex="1" parent="1">
          <mxGeometry x="280" y="-2430" width="120" height="60" as="geometry" />
        </mxCell>
        <mxCell id="aPGMS26r7XjSDQd_CqV--5" value="faz o agendamento&amp;nbsp;" style="rounded=0;whiteSpace=wrap;html=1;" vertex="1" parent="1">
          <mxGeometry x="440" y="-1870" width="120" height="60" as="geometry" />
        </mxCell>
        <mxCell id="aPGMS26r7XjSDQd_CqV--15" style="edgeStyle=orthogonalEdgeStyle;rounded=0;orthogonalLoop=1;jettySize=auto;html=1;entryX=0.5;entryY=0;entryDx=0;entryDy=0;" edge="1" parent="1" source="aPGMS26r7XjSDQd_CqV--7" target="aPGMS26r7XjSDQd_CqV--8">
          <mxGeometry relative="1" as="geometry" />
        </mxCell>
        <mxCell id="aPGMS26r7XjSDQd_CqV--7" value="&#xa;&lt;span style=&quot;color: rgb(0, 0, 0); font-family: Helvetica; font-size: 12px; font-style: normal; font-variant-ligatures: normal; font-variant-caps: normal; font-weight: 400; letter-spacing: normal; orphans: 2; text-align: center; text-indent: 0px; text-transform: none; widows: 2; word-spacing: 0px; -webkit-text-stroke-width: 0px; white-space: normal; background-color: rgb(251, 251, 251); text-decoration-thickness: initial; text-decoration-style: initial; text-decoration-color: initial; display: inline !important; float: none;&quot;&gt;Verifica os horários disponíveis&lt;/span&gt;&#xa;&#xa;" style="rounded=0;whiteSpace=wrap;html=1;" vertex="1" parent="1">
          <mxGeometry x="440" y="-2330" width="120" height="60" as="geometry" />
        </mxCell>
        <mxCell id="aPGMS26r7XjSDQd_CqV--16" style="edgeStyle=orthogonalEdgeStyle;rounded=0;orthogonalLoop=1;jettySize=auto;html=1;entryX=0.5;entryY=0;entryDx=0;entryDy=0;" edge="1" parent="1" source="aPGMS26r7XjSDQd_CqV--8" target="aPGMS26r7XjSDQd_CqV--11">
          <mxGeometry relative="1" as="geometry" />
        </mxCell>
        <mxCell id="aPGMS26r7XjSDQd_CqV--8" value="&#xa;&lt;span style=&quot;color: rgb(0, 0, 0); font-family: Helvetica; font-size: 12px; font-style: normal; font-variant-ligatures: normal; font-variant-caps: normal; font-weight: 400; letter-spacing: normal; orphans: 2; text-align: center; text-indent: 0px; text-transform: none; widows: 2; word-spacing: 0px; -webkit-text-stroke-width: 0px; white-space: normal; background-color: rgb(251, 251, 251); text-decoration-thickness: initial; text-decoration-style: initial; text-decoration-color: initial; display: inline !important; float: none;&quot;&gt;Verificar se o medico esta disponível&lt;/span&gt;&#xa;&#xa;" style="rounded=0;whiteSpace=wrap;html=1;" vertex="1" parent="1">
          <mxGeometry x="440" y="-2240" width="120" height="60" as="geometry" />
        </mxCell>
        <mxCell id="aPGMS26r7XjSDQd_CqV--19" style="edgeStyle=orthogonalEdgeStyle;rounded=0;orthogonalLoop=1;jettySize=auto;html=1;" edge="1" parent="1" source="aPGMS26r7XjSDQd_CqV--9" target="aPGMS26r7XjSDQd_CqV--10">
          <mxGeometry relative="1" as="geometry" />
        </mxCell>
        <mxCell id="aPGMS26r7XjSDQd_CqV--9" value="Verifica a data e hora da consulta e qual medico é" style="rounded=0;whiteSpace=wrap;html=1;" vertex="1" parent="1">
          <mxGeometry x="600" y="-2330" width="120" height="60" as="geometry" />
        </mxCell>
        <mxCell id="aPGMS26r7XjSDQd_CqV--10" value="verifica seus agendamentos" style="rounded=0;whiteSpace=wrap;html=1;" vertex="1" parent="1">
          <mxGeometry x="600" y="-2230" width="120" height="60" as="geometry" />
        </mxCell>
        <mxCell id="aPGMS26r7XjSDQd_CqV--17" style="edgeStyle=orthogonalEdgeStyle;rounded=0;orthogonalLoop=1;jettySize=auto;html=1;entryX=0.5;entryY=0;entryDx=0;entryDy=0;" edge="1" parent="1" source="aPGMS26r7XjSDQd_CqV--11" target="aPGMS26r7XjSDQd_CqV--12">
          <mxGeometry relative="1" as="geometry" />
        </mxCell>
        <mxCell id="aPGMS26r7XjSDQd_CqV--11" value="&#xa;&lt;span style=&quot;color: rgb(0, 0, 0); font-family: Helvetica; font-size: 12px; font-style: normal; font-variant-ligatures: normal; font-variant-caps: normal; font-weight: 400; letter-spacing: normal; orphans: 2; text-align: center; text-indent: 0px; text-transform: none; widows: 2; word-spacing: 0px; -webkit-text-stroke-width: 0px; white-space: normal; background-color: rgb(251, 251, 251); text-decoration-thickness: initial; text-decoration-style: initial; text-decoration-color: initial; display: inline !important; float: none;&quot;&gt;Verificar com o paciente qual é o problema&amp;nbsp;&lt;/span&gt;&#xa;&#xa;" style="rounded=0;whiteSpace=wrap;html=1;" vertex="1" parent="1">
          <mxGeometry x="440" y="-2150" width="120" height="60" as="geometry" />
        </mxCell>
        <mxCell id="aPGMS26r7XjSDQd_CqV--18" style="edgeStyle=orthogonalEdgeStyle;rounded=0;orthogonalLoop=1;jettySize=auto;html=1;" edge="1" parent="1" source="aPGMS26r7XjSDQd_CqV--12" target="aPGMS26r7XjSDQd_CqV--13">
          <mxGeometry relative="1" as="geometry" />
        </mxCell>
        <mxCell id="aPGMS26r7XjSDQd_CqV--12" value="&#xa;&lt;span style=&quot;color: rgb(0, 0, 0); font-family: Helvetica; font-size: 12px; font-style: normal; font-variant-ligatures: normal; font-variant-caps: normal; font-weight: 400; letter-spacing: normal; orphans: 2; text-align: center; text-indent: 0px; text-transform: none; widows: 2; word-spacing: 0px; -webkit-text-stroke-width: 0px; white-space: normal; background-color: rgb(251, 251, 251); text-decoration-thickness: initial; text-decoration-style: initial; text-decoration-color: initial; display: inline !important; float: none;&quot;&gt;Atendimento do paciente&lt;/span&gt;&#xa;&#xa;" style="rounded=0;whiteSpace=wrap;html=1;" vertex="1" parent="1">
          <mxGeometry x="440" y="-2050" width="120" height="60" as="geometry" />
        </mxCell>
        <mxCell id="aPGMS26r7XjSDQd_CqV--23" style="edgeStyle=orthogonalEdgeStyle;rounded=0;orthogonalLoop=1;jettySize=auto;html=1;" edge="1" parent="1" source="aPGMS26r7XjSDQd_CqV--13" target="aPGMS26r7XjSDQd_CqV--5">
          <mxGeometry relative="1" as="geometry" />
        </mxCell>
        <mxCell id="aPGMS26r7XjSDQd_CqV--13" value="verifica seus agendamentos" style="rounded=0;whiteSpace=wrap;html=1;" vertex="1" parent="1">
          <mxGeometry x="440" y="-1960" width="120" height="60" as="geometry" />
        </mxCell>
        <mxCell id="aPGMS26r7XjSDQd_CqV--27" value="cadastro do paciente" style="rounded=0;whiteSpace=wrap;html=1;" vertex="1" parent="1">
          <mxGeometry x="280" y="-2270" width="120" height="60" as="geometry" />
        </mxCell>
        <mxCell id="aPGMS26r7XjSDQd_CqV--28" value="Cadastro do medico" style="rounded=0;whiteSpace=wrap;html=1;" vertex="1" parent="1">
          <mxGeometry x="280" y="-2350" width="120" height="60" as="geometry" />
        </mxCell>
      </root>
    </mxGraphModel>
  </diagram>
</mxfile>
